<?xml version="1.0"?>
<svg width="88" height="44" xmlns="http://www.w3.org/2000/svg">
 <g>
  <title>Layer 1</title>
  <g id="svg_15">
   <path id="svg_16" d="m20.5,22.25c0.552,0 1,0.448 1,1c0,0.343 -0.184999,0.631001 -0.447001,0.812c0.292,0.119999 0.611,0.188 0.947001,0.188c1.381001,0 2.5,-1.120001 2.5,-2.5s-1.118999,-2.5 -2.5,-2.5s-2.5,1.120001 -2.5,2.5c0,0.336 0.068001,0.655001 0.188,0.948c0.181,-0.264 0.469,-0.448 0.812,-0.448z" fill="#0f7c67"/>
   <path id="svg_17" d="m22,14.75c-8.667,0 -13,8 -13,8s1.946,2.577999 6,4.5c1.885,0.893999 4.024,2 7,2c3.009001,0 5.105,-1.09 7,-2c4.007999,-1.924 6,-4.5 6,-4.5s-4.333,-8 -13,-8zm0,3.5c1.93,0 3.5,1.57 3.5,3.5s-1.57,3.5 -3.5,3.5s-3.5,-1.57 -3.5,-3.5s1.57,-3.5 3.5,-3.5zm6.135,7.197001l-0.299,0.143c-1.690001,0.816 -3.439001,1.66 -5.836,1.66c-2.354,0 -4.114,-0.839001 -5.816,-1.650999l-0.326,-0.156c-2.033999,-0.964001 -3.474,-2.116001 -4.327,-2.917002c0.606,-0.698999 2.693,-2.872 6.042999,-4.030998c-0.673,0.911999 -1.073999,2.035 -1.073999,3.254999c0,3.037001 2.462999,5.5 5.5,5.5s5.5,-2.462999 5.5,-5.5c0,-1.218 -0.4,-2.339001 -1.07,-3.25c3.367001,1.173 5.43,3.377001 5.999001,4.049c-0.869001,0.804001 -2.302,1.941999 -4.294001,2.898001l0,0z" fill="#0f7c67"/>
  </g>
  <path id="svg_18" d="m77.896004,21.985001c-0.386002,0.371 -0.821007,0.775999 -1.334007,1.24c-0.440994,0.417 -1.665993,1.466002 -3.579994,2.379c-0.040001,0.018999 -0.078003,0.035999 -0.118004,0.055c-0.261002,0.122 -0.534996,0.239 -0.82,0.354c-0.006996,0.001999 -0.014,0.005999 -0.018997,0.007999c-0.730003,0.291 -1.540001,0.547001 -2.427002,0.745001c-0.052002,0.011999 -0.103996,0.022999 -0.153999,0.035c-0.169998,0.035999 -0.343002,0.070999 -0.517998,0.102999c-1.734001,0.318001 -2.926003,0.261003 -2.926003,0.261003s-1.192001,0.056997 -2.926998,-0.262001c-0.175003,-0.032001 -0.348003,-0.066999 -0.518002,-0.103003c-0.050999,-0.011 -0.103001,-0.022999 -0.153999,-0.035c-0.887001,-0.198 -1.695999,-0.455 -2.427002,-0.744999c-0.004997,-0.002001 -0.011997,-0.006001 -0.018997,-0.008001c-0.285004,-0.113997 -0.560001,-0.231997 -0.820004,-0.353996c-0.038998,-0.019001 -0.077999,-0.036001 -0.118,-0.055c-1.913998,-0.913 -3.139,-1.962 -3.579998,-2.379c-0.513,-0.463001 -0.948002,-0.869001 -1.334,-1.240004c-0.813,0.622004 3.153999,7.933002 11.896999,7.933002s12.710999,-7.310999 11.896004,-7.932001l0,0z" fill="#0f7c67"/>
 </g>
</svg>